<?xml version="1.0" encoding="UTF-8" standalone="no"?><!DOCTYPE svg PUBLIC "-//W3C//DTD SVG 1.1//EN" "http://www.w3.org/Graphics/SVG/1.1/DTD/svg11.dtd"><svg width="100%" height="100%" viewBox="0 0 20834 20834" version="1.1" xmlns="http://www.w3.org/2000/svg" xmlns:xlink="http://www.w3.org/1999/xlink" xml:space="preserve" xmlns:serif="http://www.serif.com/" style="fill-rule:evenodd;clip-rule:evenodd;stroke-linejoin:round;stroke-miterlimit:2;"><rect id="Plan-de-travail1" serif:id="Plan de travail1" x="0" y="0" width="20833.3" height="20833.3" style="fill:none;"/><g id="Plan-de-travail11" serif:id="Plan de travail1"><g id="Calque1"><g id="shopping-bag" serif:id="shopping bag"><path d="M8817.23,1916.18c1134.97,-655.276 2056.43,-123.275 2056.43,1187.28c0,1310.55 -921.453,2906.56 -2056.43,3561.83c-1134.97,655.276 -2056.43,123.275 -2056.43,-1187.28c-0,-1310.55 921.453,-2906.56 2056.43,-3561.83Zm-0,348.197c968.544,-559.189 1754.88,-105.199 1754.88,1013.18c0,1118.38 -786.334,2480.35 -1754.88,3039.54c-968.544,559.189 -1754.88,105.198 -1754.88,-1013.18c0,-1118.38 786.335,-2480.35 1754.88,-3039.54Z" style="fill:#bfbfbf;"/><path id="face-back" d="M11787.6,2575.78l-6397.77,3693.75l-456.983,10817.4l7311.73,-4221.43l-456.983,-10289.7Z" style="fill:#bfbfbf;"/><path d="M11787.6,2575.78l913.967,1055.36l456.983,5252.06l-1370.95,-288.575" style="fill:#ccc;"/><path d="M6986.92,6663.92l5483.8,-3166.07" style="fill:none;"/><path d="M12701.6,3631.14l2284.92,263.839l913.966,11081.3l-3198.88,-1846.88l-0,-9498.22Z" style="fill:#d9d9d9;"/><path d="M11787.6,3631.14l-5483.8,3166.07l1827.93,1055.36l3655.87,-2110.72l-0,-2110.72Z" style="fill:#606060;fill-opacity:0.34;"/><path d="M12701.6,4686.49l-0,527.679l2284.92,263.839l-0,-527.679l-2284.92,-263.839Z" style="fill:#606060;fill-opacity:0.34;"/><path d="M12701.6,4686.49l-913.967,-1055.36l-0,2110.72l913.967,-527.679" style="fill:#606060;fill-opacity:0.34;"/><path id="face-front" d="M14986.5,3894.97l-6854.75,3957.59l456.983,11345.1l7311.73,-4221.43l-913.966,-11081.3Z" style="fill:#ebebeb;"/><path d="M6760.8,17614.6l1827.93,1583.04l-456.983,-11345.1l-1153.07,-1193.4l-217.878,10955.5Z" style="fill:#ccc;"/><path d="M4932.87,17086.9l1827.93,527.679l226.123,-10950.7l-1597.07,-394.392l-456.983,10817.4Z" style="fill:#d9d9d9;"/><path d="M11559.1,3499.22c1134.97,-655.276 2056.43,-123.275 2056.43,1187.28c0,1310.55 -921.453,2906.56 -2056.43,3561.83c-1134.97,655.276 -2056.43,123.275 -2056.43,-1187.28c-0,-1310.55 921.453,-2906.56 2056.43,-3561.83Zm0,348.196c968.544,-559.189 1754.88,-105.198 1754.88,1013.18c-0,1118.38 -786.335,2480.35 -1754.88,3039.54c-968.544,559.189 -1754.88,105.198 -1754.88,-1013.18c-0,-1118.38 786.334,-2480.35 1754.88,-3039.54Z" style="fill:#ebebeb;"/></g><g id="text"><path d="M9976.65,14162.4l0,-3354.18l2153.83,-1243.52l0,567.418l-1567.32,904.895l0,743.593l1458.34,-841.976l0,565.13l-1458.34,841.976l0,912.903l1622.81,-936.927l-0,565.13l-2209.31,1275.55Z" style="fill:#9d9d9d;fill-rule:nonzero;"/><path d="M12431.7,12745l-0,-610.89l1525.71,-3056.74l-1353.33,781.344l-0,-567.418l2126.09,-1227.5l0,526.235l-1591.1,3181.43l1652.53,-954.087l0,565.131l-2359.9,1362.49Z" style="fill:#9d9d9d;fill-rule:nonzero;"/></g></g></g></svg>